<?xml version="1.0" encoding="UTF-8"?>
<svg version="1.1" xmlns="http://www.w3.org/2000/svg" width="400" height="400">
<path d="M0 0 C132 0 264 0 400 0 C400 132 400 264 400 400 C268 400 136 400 0 400 C0 268 0 136 0 0 Z " fill="#000000" transform="translate(0,0)"/>
<path d="M0 0 C0.74084335 -0.00988449 1.48168671 -0.01976898 2.24497986 -0.029953 C27.75664625 -0.30052445 50.49638424 1.12948943 70.61328125 18.76953125 C83.56348489 31.76084665 91.12022178 48.28812001 91.14453125 66.71875 C91.12132812 67.88019531 91.098125 69.04164063 91.07421875 70.23828125 C60.94769831 71.43216528 60.94769831 71.43216528 47.07421875 71.23828125 C46.84347656 70.32046875 46.61273438 69.40265625 46.375 68.45703125 C43.56676819 57.89008783 40.39226935 49.6095979 31.07421875 43.23828125 C20.16869149 37.27286463 4.56155647 37.82295726 -7.328125 40.4140625 C-14.73212813 42.76330259 -21.49832889 45.65257193 -25.92578125 52.23828125 C-27.86082879 57.55181721 -28.07175069 64.19644531 -26.078125 69.48828125 C-17.70294212 82.60171745 3.2874269 85.46226745 17.07421875 89.23828125 C73.80313848 104.91314299 73.80313848 104.91314299 89.73046875 130.9453125 C98.7493996 147.45791384 99.89459643 169.7582313 95.234375 187.87890625 C88.73333249 206.7034738 77.57753829 220.82402821 59.58984375 230.01953125 C35.41033605 240.98090808 0.52795377 242.76395237 -24.92578125 234.23828125 C-25.56692871 234.02397461 -26.20807617 233.80966797 -26.86865234 233.58886719 C-47.03964069 226.51331498 -60.3749968 211.96119893 -69.61328125 193.17578125 C-74.60516901 182.54508798 -77.25656771 170.97458482 -76.92578125 159.23828125 C-72.63805069 157.09441597 -67.22942334 157.34455063 -62.50683594 156.88110352 C-60.46086526 156.67924273 -58.41601798 156.46802645 -56.37109375 156.25585938 C-49.19716336 155.54058046 -42.13640116 155.01643251 -34.92578125 155.23828125 C-34.61447266 156.63626953 -34.61447266 156.63626953 -34.296875 158.0625 C-31.15573724 171.06076464 -26.50228477 184.38248484 -14.54296875 191.6953125 C-5.43293358 196.52892443 2.77171592 197.58254624 12.94921875 197.55078125 C13.97402344 197.56689453 14.99882812 197.58300781 16.0546875 197.59960938 C27.42177412 197.60683116 36.49759412 194.89809428 45.07421875 187.23828125 C50.71768316 180.6386927 53.7102361 173.38862373 53.44140625 164.63671875 C52.59394525 159.10117561 50.26176535 154.32122583 46.1953125 150.44921875 C35.67154953 142.89071496 21.42159457 139.02568868 8.88671875 136.3125 C-11.78015003 131.79946885 -35.46694043 125.54526706 -50.92578125 110.23828125 C-51.61285156 109.58859375 -52.29992187 108.93890625 -53.0078125 108.26953125 C-65.70128493 95.2605423 -70.34164935 78.75730653 -70.1328125 60.94921875 C-69.22557803 44.68746883 -62.57570369 29.69403832 -50.92578125 18.23828125 C-36.06950738 6.15341888 -19.16951516 0.20953253 0 0 Z " fill="#FDFDFD" transform="translate(186.92578125,77.76171875)"/>
</svg>
